# xmcd CD database file
#
# Track frame offsets:
#	150
#	26244
#	53571
#	74051
#	99468
#	125727
#	137134
#	172978
#	198972
#	218139
#	244523
#	272011
#	299746
#	319074
#
# Disc length: 4582 seconds
#
# Revision: 0
# Processed by: cddbd v1.5.2PL0 Copyright (c) Steve Scherf et al.
# Submitted via: CDex 1.51
#
DISCID=dc11e40e
DTITLE=Pete Kartsounes - Spirit
DYEAR=2004
DGENRE=Blues
TTITLE0=While the Band Plays On
TTITLE1=On My Side
TTITLE2=Your Own Lullaby
TTITLE3=Unravel
TTITLE4=Sing
TTITLE5=Blue and Lonely
TTITLE6=Times Like These
TTITLE7=In The Days Ago
TTITLE8=The Last Song
TTITLE9=Memories
TTITLE10=These are The Good Ol' Days
TTITLE11=A Song For An Angel
TTITLE12=A Good Day for the Blues
TTITLE13=Spirit
EXTD=YEAR: 2004
EXTT0=
EXTT1=
EXTT2=
EXTT3=
EXTT4=
EXTT5=
EXTT6=
EXTT7=
EXTT8=
EXTT9=
EXTT10=
EXTT11=
EXTT12=
EXTT13=
PLAYORDER=
